<?xml version="1.0" encoding="UTF-8"?>
<svg version="1.1" xmlns="http://www.w3.org/2000/svg" width="969" height="968">
<path d="M0 0 C319.77 0 639.54 0 969 0 C969 319.44 969 638.88 969 968 C649.23 968 329.46 968 0 968 C0 648.56 0 329.12 0 0 Z " fill="#FEFEFE" transform="translate(0,0)"/>
<path d="M0 0 C169.04866896 0 169.04866896 0 219.54509735 45.75742245 C222.72989943 49.26594761 225.82748926 52.7838974 228.8963623 56.38670349 C230.67298327 58.37341347 232.45426314 60.35437681 234.24525023 62.32799381 C237.03125562 65.40348531 239.8140728 68.48115288 242.57099119 71.58278074 C249.16561523 78.99327606 255.95720917 86.18026874 262.89649963 93.26840401 C263.39835792 93.78120719 263.90021621 94.29401037 264.41728233 94.82235305 C266.96974287 97.42875596 269.5251348 100.0322644 272.08166939 102.63467056 C289.91740785 120.80068375 307.37208056 139.29272123 324.609375 158.02612305 C341.28749413 176.14995367 358.12849041 194.09612869 375.20703125 211.84350586 C376.00437866 212.6722823 376.00437866 212.6722823 376.8178341 213.51780169 C382.68962905 219.62062242 388.56612018 225.71890605 394.44480038 231.81509387 C404.80028394 242.55425063 415.13486375 253.31346835 425.45910645 264.08265686 C425.95766477 264.60262355 426.4562231 265.12259024 426.96988926 265.6583135 C442.15794669 281.50063647 457.23940001 297.43901295 472.22351074 313.47434998 C472.90457312 314.20309842 472.90457312 314.20309842 473.59939434 314.94656906 C482.58776869 324.56538642 491.56083996 334.19830797 500.51070616 343.85296738 C503.51769021 347.0956691 506.52829454 350.33499716 509.53924567 353.57401509 C511.58101264 355.7742684 513.61634395 357.98034157 515.65132856 360.18686622 C516.86238387 361.49103062 518.07372008 362.79493423 519.28539276 364.09852505 C519.82681317 364.68950585 520.36823359 365.28048665 520.92606068 365.88937595 C523.26171733 368.39042061 524.69919106 369.89973035 528 371 C530.25 373.25 530.25 373.25 532 376 C531.70772722 380.1493324 530.37962472 382.11862343 527.47886658 385.00888062 C526.72336517 385.77132584 525.96786377 386.53377106 525.18946838 387.31932068 C524.35471481 388.14126419 523.51996124 388.9632077 522.65991211 389.81005859 C521.7850415 390.6871196 520.9101709 391.5641806 520.00878906 392.46781921 C517.60853944 394.86998454 515.19972058 397.26289253 512.78651118 399.65199614 C510.25692963 402.16024697 507.73832768 404.67947648 505.21839905 407.19741821 C500.98040229 411.42896606 496.73508154 415.65304559 492.48461914 419.87207031 C487.04755032 425.26897487 481.62185666 430.67716018 476.20001888 436.08936119 C471.52186613 440.75917141 466.83928038 445.42452908 462.15557408 450.08876848 C461.15482491 451.08548244 460.15422223 452.08234351 459.15376735 453.07935286 C455.85476848 456.36696227 452.55137977 459.65010689 449.24584961 462.93115234 C448.42526566 463.74904739 447.6046817 464.56694244 446.75923157 465.40962219 C445.98399139 466.17770706 445.20875122 466.94579193 444.41001892 467.7371521 C443.74762679 468.39527075 443.08523466 469.0533894 442.40277004 469.73145103 C440.44399792 471.58080424 438.4536014 473.33563985 436.40991306 475.08798409 C431.04114836 479.76277008 426.05279509 484.81524553 421.03137207 489.85510254 C419.93731248 490.94944257 418.84303051 492.04356031 417.74854708 493.13747644 C414.75840363 496.12732584 411.77137319 499.12026815 408.78485513 502.1137383 C405.55692877 505.34806212 402.32607703 508.57946138 399.0955658 511.811203 C393.50272604 517.40692444 387.91166433 523.00441729 382.32176208 528.60307312 C374.23157462 536.70583591 366.1381309 544.80534001 358.04380256 552.90396601 C344.89935193 566.05547846 331.7567707 579.20885723 318.61572266 592.36376953 C317.82983224 593.15048776 317.04394182 593.93720599 316.23423654 594.74776417 C310.65610788 600.33179302 305.07804616 605.91588873 299.5 611.5 C293.12813862 617.87878962 286.75624696 624.25754898 280.38427734 630.63623047 C279.59934853 631.42198741 278.81441971 632.20774435 278.00570518 633.01731211 C264.91260888 646.12409973 251.81754491 659.22891973 238.7210784 672.33233976 C230.64816852 680.40972693 222.57704061 688.48888688 214.50821197 696.570351 C208.97942425 702.10757219 203.44886326 707.64301799 197.91691077 713.17707741 C194.72680363 716.36852777 191.53752928 719.56079902 188.35046196 722.75528526 C185.43008444 725.68243509 182.5073833 728.60724415 179.58285993 731.53025168 C178.52824712 732.58513483 177.47447757 733.64086188 176.42166382 734.69754058 C171.36411423 739.77278579 166.2652173 744.73487123 160.82441747 749.40184844 C157.76576235 752.08116638 154.9118333 754.95720499 152.04640198 757.84007263 C151.39507087 758.49125488 150.74373977 759.14243713 150.07267135 759.81335217 C147.91398321 761.97272891 145.75888011 764.13564694 143.60375977 766.29858398 C142.047795 767.85646988 140.49160095 769.41412681 138.93519592 770.97157288 C135.59661487 774.31330447 132.25959113 777.65658059 128.923769 781.00106621 C123.65383068 786.28455429 118.38005551 791.56420132 113.10569763 796.84327698 C105.71788169 804.23841276 98.33146149 811.63493954 90.9465332 819.03295898 C90.47880239 819.50151761 90.01107158 819.97007623 89.52916711 820.4528336 C86.20689682 823.7810079 82.88469296 827.10924851 79.5625 830.4375 C75.75533989 834.25159631 71.94814353 838.06565643 68.14086914 841.87963867 C67.43695198 842.58479803 67.43695198 842.58479803 66.71881426 843.30420303 C58.90628681 851.13039527 51.0917905 858.95461911 43.27593273 866.77748543 C38.02708481 872.03132996 32.7806878 877.28760632 27.53612244 882.5457257 C24.28503012 885.80424426 21.03189708 889.06071942 17.77818871 892.3166256 C16.2635285 893.83316741 14.74973764 895.35057802 13.23685455 896.86889267 C11.18174597 898.93115074 9.12363769 900.99036629 7.06471252 903.04881287 C6.45831249 903.65880786 5.85191246 904.26880285 5.22713667 904.89728254 C1.11409329 909 1.11409329 909 0 909 C0 609.03 0 309.06 0 0 Z " fill="#00A3EB" transform="translate(0,0)"/>
<path d="M0 0 C4.26332334 3.58516854 8.37298945 7.24614634 12.32151794 11.18107605 C12.8093581 11.66594508 13.29719825 12.15081411 13.79982144 12.65037614 C15.41112832 14.25310753 17.01893363 15.85930277 18.62670898 17.46557617 C19.79009893 18.62433057 20.95368354 19.78288955 22.1174469 20.94126892 C25.25994716 24.07072723 28.39917566 27.20344665 31.53739047 30.33720183 C33.49835272 32.29522433 35.45989672 34.2526622 37.42161751 36.2099247 C43.56094181 42.33560523 49.69828388 48.4632614 55.83272594 54.59383124 C62.91313754 61.6697482 70.00006679 68.73905162 77.09265655 75.80276126 C82.57998553 81.26851885 88.06158007 86.73998378 93.53880364 92.21586782 C96.80922222 95.48523652 100.08204485 98.75211065 103.36083794 102.0130825 C106.43803652 105.07387564 109.50808648 108.14165801 112.57268333 111.21506691 C113.70046405 112.34362164 114.83083291 113.46959657 115.96390915 114.59283447 C117.50539275 116.12171033 119.03743347 117.65945453 120.56736755 119.19987488 C121.4284484 120.05948916 122.28952925 120.91910345 123.17670345 121.80476665 C125 124 125 124 125 127 C125.57222046 127.25622605 126.14444092 127.51245211 126.7340014 127.77644259 C129.24085856 129.13005493 131.1235813 130.68754389 133.25597763 132.5769186 C134.10344016 133.32481071 134.95090269 134.07270282 135.8240459 134.84325832 C136.75011307 135.66942262 137.67618024 136.49558692 138.63031006 137.3467865 C139.62769195 138.23228797 140.62522544 139.11761872 141.62289739 140.00279337 C144.36685938 142.44099331 147.10408305 144.88663855 149.83912301 147.33483946 C151.59022489 148.90208435 153.34265225 150.46783753 155.0951786 152.03348923 C177.55175616 172.11071243 199.57932196 192.63588555 221.44079678 213.35823589 C225.04704467 216.77609391 228.65653671 220.19050716 232.26806641 223.6027832 C233.34578064 224.62120676 233.34578064 224.62120676 234.44526687 225.66020454 C245.9010144 236.46978888 257.60131365 246.96805823 269.43164536 257.36469095 C281.69843816 268.15723601 293.62413499 279.25774337 305.32573915 290.66068178 C312.40738405 297.54389868 319.53736237 304.24616451 327.23367956 310.44516665 C349.08776674 328.39128482 355.11691863 343.22359788 370 370 C370 421.15 370 472.3 370 525 C74.65 525 -220.7 525 -525 525 C-518.249961 517.1249545 -518.249961 517.1249545 -515.19182014 514.065979 C-514.49509512 513.36664623 -513.7983701 512.66731346 -513.08053219 511.94678879 C-512.33305844 511.20154575 -511.58558468 510.45630272 -510.81546021 509.68847656 C-510.00743482 508.87889118 -509.19940943 508.0693058 -508.36689842 507.23518753 C-505.67030764 504.53462179 -502.97017302 501.83762822 -500.27001953 499.140625 C-498.3309181 497.20071786 -496.39256176 495.26006683 -494.4541626 493.31945801 C-489.74199089 488.6028488 -485.02713074 483.888936 -480.31128873 479.17599678 C-476.47670952 475.34367981 -472.64311217 471.51038322 -468.81020737 467.6763916 C-468.26380856 467.12983957 -467.71740976 466.58328753 -467.15445342 466.02017331 C-466.04430024 464.9097004 -464.93414931 463.79922525 -463.82400058 462.68874788 C-453.42317802 452.28507638 -443.01929726 441.88446748 -432.61436187 431.48490953 C-423.696738 422.57175192 -414.78173742 413.65597753 -405.86865234 404.73828125 C-395.50678588 394.37105653 -385.14329039 384.0054647 -374.77721107 373.64245224 C-373.67061335 372.53617305 -372.5640177 371.42989178 -371.45742416 370.3236084 C-370.91302595 369.77936446 -370.36862774 369.23512053 -369.80773262 368.67438436 C-365.98131322 364.84882645 -362.15605146 361.02211337 -358.33124161 357.19494629 C-353.66588344 352.52677597 -348.99873231 347.860407 -344.32931317 343.1962986 C-341.94936284 340.81896639 -339.57047794 338.44059425 -337.19322586 336.06056213 C-334.61062991 333.47522508 -332.02495947 330.89300158 -329.43850708 328.31152344 C-328.69549477 327.5662804 -327.95248245 326.82103737 -327.18695462 326.05321121 C-323.9685902 322.8468032 -320.73027994 319.72682858 -317.27538872 316.77580929 C-311.27145739 311.59113117 -305.75411321 305.88842302 -300.15527344 300.27552795 C-298.85751969 298.97821073 -297.55954603 297.68111347 -296.26137257 296.38421625 C-292.70850778 292.83358044 -289.15875676 289.27984602 -285.60951924 285.72558486 C-281.77640055 281.88813889 -277.94038321 278.05359237 -274.10472107 274.21868896 C-267.46412338 267.57861507 -260.82535589 260.9367159 -254.18783569 254.29356575 C-244.59114771 244.68874316 -234.99169242 235.08669025 -225.39156425 225.48530632 C-209.81523778 209.90679242 -194.24114478 194.32604768 -178.66845703 178.74389648 C-163.54300256 163.60925993 -148.41650167 148.47567055 -133.28857422 133.34350586 C-132.35574639 132.41041531 -131.42291856 131.47732476 -130.46182323 130.51595873 C-125.78199121 125.83482166 -121.10213852 121.15370527 -116.42227554 116.47259915 C-77.61164369 77.65160429 -38.80463673 38.82698739 0 0 Z " fill="#FEB801" transform="translate(599,443)"/>
<path d="M0 0 C207.57 0 415.14 0 629 0 C628 2 628 2 625.9375 3.12890625 C621.70697466 5.82361587 618.48102328 9.35050461 615 12.9375 C607.56304856 20.55968916 607.56304856 20.55968916 604.4375 23.00390625 C602.25146564 24.79407221 600.61541536 26.53258406 598.79203987 28.67285633 C595.30924832 32.69044718 591.65715523 36.48073887 587.88986206 40.23039246 C587.20953922 40.91156972 586.52921639 41.59274698 585.82827771 42.29456598 C583.57001072 44.55446735 581.30821181 46.81079887 579.04638672 49.06713867 C577.41780469 50.69543835 575.78944338 52.32395881 574.1612854 53.9526825 C569.75464987 58.35960425 565.34494338 62.76344135 560.93467093 67.16672301 C556.31476889 71.78035722 551.6977144 76.39683932 547.08035278 81.01301575 C539.32983926 88.76094314 531.57741794 96.50695797 523.82373047 104.25170898 C515.85315914 112.21310355 507.88363641 120.17554536 499.91552734 128.1394043 C499.42435216 128.63031676 498.93317697 129.12122922 498.42711769 129.62701782 C495.96209454 132.09073552 493.49709222 134.55447407 491.03210044 137.01822317 C474.0499397 153.99178088 457.06557887 170.9631353 440.07891846 187.93218994 C439.36261454 188.64775427 438.64631062 189.36331859 437.90830052 190.10056669 C436.59138479 191.41611034 435.27445546 192.73164037 433.95750892 194.04715317 C430.63736238 197.36379296 427.31809967 200.68131212 424 204 C387 241 350 278 313 315 C306.08459838 309.33288522 299.85308154 302.99868657 293.54127502 296.68171692 C292.27325191 295.41628011 291.0050152 294.1510573 289.73658413 292.88602942 C286.26126277 289.41874896 282.78905852 285.94836175 279.31738579 282.47742856 C275.56940429 278.73130248 271.81857846 274.98802603 268.06816101 271.24433899 C259.87597666 263.06571373 251.68755107 254.88333217 243.49994016 246.70012879 C238.38988348 241.59283637 233.27909066 236.48628103 228.16816521 231.37985802 C214.02124477 217.24512279 199.87526553 203.10944713 185.73274326 188.97031116 C184.37622847 187.61412572 184.37622847 187.61412572 182.99230933 186.23054258 C182.08581194 185.32426348 181.17931456 184.41798437 180.24534756 183.48424226 C178.40843963 181.6477778 176.57153016 179.81131489 174.73461914 177.97485352 C173.82344953 177.06390534 172.91227992 176.15295716 171.97349911 175.21440449 C157.18399676 160.42885665 142.38774531 145.65008246 127.58859659 130.87419049 C112.39991303 115.70918393 97.21682563 100.53859356 82.03939193 85.36232775 C73.51526376 76.83911794 64.98871404 68.3183617 56.45599556 59.80375099 C49.19684306 52.55994962 41.9427873 45.31109349 34.69545151 38.05546883 C30.99497905 34.35107329 27.29207394 30.64919507 23.5826683 26.95374298 C20.19208142 23.57579477 16.80839246 20.1910978 13.43023586 16.80071982 C12.20225947 15.570769 10.97170314 14.34338791 9.73842496 13.11875329 C8.07177079 11.46304978 6.41448382 9.79851893 4.75936222 8.13129902 C3.37072093 6.74355336 3.37072093 6.74355336 1.95402628 5.32777244 C0 3 0 3 0 0 Z " fill="#F15222" transform="translate(287,0)"/>
<path d="M0 0 C0 200.64 0 401.28 0 608 C-4.08823982 604.49579444 -7.93380753 601.19097295 -11.69822693 597.41529846 C-12.56294617 596.55050873 -13.42766541 595.68571899 -14.31858826 594.79472351 C-15.24397903 593.86416641 -16.16936981 592.93360931 -17.12280273 591.97485352 C-18.1253965 590.97033707 -19.12822078 589.96605064 -20.1312561 588.9619751 C-22.27920356 586.81088304 -24.42559145 584.6582514 -26.57076836 582.50439644 C-29.96904624 579.0925143 -33.37120822 575.68452271 -36.77394104 572.27708435 C-44.61116569 564.42785223 -52.44336101 556.57360799 -60.27549744 548.71929932 C-67.4554506 541.51912094 -74.63648391 534.32002855 -81.82159001 527.12499183 C-85.19773562 523.74389065 -88.5714341 520.36037286 -91.94322383 516.97492802 C-94.04850402 514.86214026 -96.15589736 512.75146972 -98.26384354 510.64134216 C-99.69290725 509.20954163 -101.11944649 507.77522279 -102.54588318 506.34080505 C-106.20988094 502.67650956 -109.86217958 499.05762907 -113.80592346 495.69407654 C-119.97750844 490.38879947 -125.61845702 484.50349725 -131.35742188 478.74023438 C-132.69513469 477.40059965 -134.03307738 476.06119445 -135.37123108 474.72200012 C-138.23998111 471.85010201 -141.10717322 468.97666088 -143.97315979 466.102005 C-148.50989658 461.55168648 -153.05049817 457.0052376 -157.5916748 452.45935059 C-168.04962374 441.98938502 -178.50254382 431.51440347 -188.95542145 421.03937531 C-198.53992616 411.43466414 -208.12550119 401.8310276 -217.71513987 392.23144197 C-222.22445016 387.71716493 -226.7313144 383.20046453 -231.23628998 378.68186188 C-234.04410692 375.86655861 -236.85401837 373.05335292 -239.66448784 370.24069786 C-240.96174669 368.94157522 -242.25814497 367.64159256 -243.55359077 366.340662 C-252.23403482 357.62289955 -252.23403482 357.62289955 -261.37456322 349.39372063 C-263.69611466 347.40312082 -265.87528227 345.28186535 -268.05493164 343.13793945 C-268.95848892 342.2504451 -269.8620462 341.36295074 -270.79298401 340.44856262 C-271.74912832 339.50389398 -272.70484275 338.55879006 -273.66015625 337.61328125 C-274.15053312 337.12822805 -274.64091 336.64317486 -275.14614677 336.14342308 C-277.72874857 333.58729241 -280.30784203 331.02767579 -282.88452148 328.46557617 C-285.01244828 326.35110169 -287.14746158 324.24418187 -289.28881836 322.14331055 C-291.88967989 319.59158403 -294.47822134 317.02796814 -297.05819511 314.45512962 C-298.04001219 313.48003506 -299.02608695 312.50920824 -300.01643562 311.54277992 C-301.39241339 310.1982317 -302.75147855 308.83644031 -304.10961914 307.47387695 C-304.88713028 306.70445267 -305.66464142 305.93502838 -306.4657135 305.14228821 C-308 303 -308 303 -307.90869141 300.90820312 C-306.93376401 298.86090799 -305.95823531 297.58980586 -304.35131836 295.99487305 C-303.79661362 295.43716721 -303.24190887 294.87946136 -302.6703949 294.30485535 C-301.76427208 293.41725273 -301.76427208 293.41725273 -300.83984375 292.51171875 C-300.21654678 291.89029495 -299.59324982 291.26887115 -298.95106506 290.62861633 C-297.62882752 289.31310086 -296.30299728 288.00118808 -294.97387695 286.69262695 C-292.96254611 284.71216175 -290.96180606 282.72150323 -288.96289062 280.72851562 C-287.67248927 279.4472977 -286.38149161 278.16668001 -285.08984375 276.88671875 C-284.49993149 276.30105637 -283.91001923 275.71539398 -283.30223083 275.11198425 C-280.2945461 272.15440003 -277.23276102 269.30473729 -274.03930664 266.5480957 C-269.93216845 262.99012026 -266.0979978 259.20881998 -262.28125 255.34375 C-261.57907349 254.63778687 -260.87689697 253.93182373 -260.15344238 253.20446777 C-257.93315397 250.97208642 -255.71616045 248.73647889 -253.5 246.5 C-250.57590521 243.54909622 -247.64836943 240.60166797 -244.71875 237.65625 C-244.063302 236.99250366 -243.407854 236.32875732 -242.73254395 235.64489746 C-238.9459954 231.83862856 -235.03813442 228.25748806 -230.97473145 224.74987793 C-227.6764163 221.82712664 -224.59475263 218.69778665 -221.5 215.5625 C-220.82001953 214.87873291 -220.14003906 214.19496582 -219.43945312 213.49047852 C-217.29049074 211.32942945 -215.14482721 209.16515274 -213 207 C-210.16966163 204.14283983 -207.33587327 201.28916546 -204.5 198.4375 C-203.54963867 197.47469116 -203.54963867 197.47469116 -202.58007812 196.49243164 C-198.84741592 192.73969609 -194.98752122 189.21647373 -190.98242188 185.75756836 C-187.68209235 182.83157424 -184.59733298 179.7004008 -181.5 176.5625 C-180.82001953 175.87873291 -180.14003906 175.19496582 -179.43945312 174.49047852 C-177.29049074 172.32942945 -175.14482721 170.16515274 -173 168 C-170.16966163 165.14283983 -167.33587327 162.28916546 -164.5 159.4375 C-163.54963867 158.47469116 -163.54963867 158.47469116 -162.58007812 157.49243164 C-159.48323378 154.37893323 -156.33843228 151.38367107 -153.01367188 148.51367188 C-148.91116914 144.97057876 -145.08866318 141.19936717 -141.28125 137.34375 C-140.57907349 136.63778687 -139.87689697 135.93182373 -139.15344238 135.20446777 C-136.93315397 132.97208642 -134.71616045 130.73647889 -132.5 128.5 C-129.57590521 125.54909622 -126.64836943 122.60166797 -123.71875 119.65625 C-123.063302 118.99250366 -122.407854 118.32875732 -121.73254395 117.64489746 C-117.95033123 113.84298697 -114.04683553 110.26690305 -109.98815918 106.76330566 C-106.60949215 103.76675349 -103.45330837 100.55596841 -100.28125 97.34375 C-99.57907349 96.63778687 -98.87689697 95.93182373 -98.15344238 95.20446777 C-95.93315397 92.97208642 -93.71616045 90.73647889 -91.5 88.5 C-88.57590521 85.54909622 -85.64836943 82.60166797 -82.71875 79.65625 C-82.063302 78.99250366 -81.407854 78.32875732 -80.73254395 77.64489746 C-76.95033123 73.84298697 -73.04683553 70.26690305 -68.98815918 66.76330566 C-65.60949215 63.76675349 -62.45330837 60.55596841 -59.28125 57.34375 C-58.57907349 56.63778687 -57.87689697 55.93182373 -57.15344238 55.20446777 C-54.93315397 52.97208642 -52.71616045 50.73647889 -50.5 48.5 C-47.57590521 45.54909622 -44.64836943 42.60166797 -41.71875 39.65625 C-41.063302 38.99250366 -40.407854 38.32875732 -39.73254395 37.64489746 C-35.92067321 33.81317449 -31.98740361 30.20243736 -27.89633179 26.67147827 C-25.07085944 24.18103031 -22.42546998 21.5315796 -19.78515625 18.84765625 C-19.24394638 18.30265976 -18.70273651 17.75766327 -18.14512634 17.19615173 C-16.44841021 15.48739769 -14.75505248 13.77537763 -13.0625 12.0625 C-10.80622564 9.77971465 -8.54669926 7.5002206 -6.28515625 5.22265625 C-5.76856949 4.69777115 -5.25198273 4.17288605 -4.71974182 3.63209534 C-1.11275005 0 -1.11275005 0 0 0 Z " fill="#7EB900" transform="translate(969,74)"/>
<path d="M0 0 C4.72576587 3.94642159 9.19742395 8.05537917 13.53767776 12.42021656 C14.47029698 13.3520038 14.47029698 13.3520038 15.42175698 14.30261502 C17.4970376 16.37725568 19.56872354 18.45544818 21.64044189 20.53364563 C23.14555539 22.03975564 24.6508926 23.54564211 26.15643382 25.05132455 C30.28724122 29.18377578 34.4149301 33.3193297 38.54213047 37.45538294 C42.99561471 41.91730212 47.45201994 46.37630214 51.90811157 50.83561707 C59.62682053 58.56062217 67.34380775 66.28734313 75.05973053 74.015131 C86.73230376 85.70554857 98.40910245 97.39173997 110.08677369 109.0770648 C114.77378506 113.76718524 119.46065989 118.45744213 124.14753342 123.14770031 C124.92851622 123.92924527 124.92851622 123.92924527 125.72527646 124.72657902 C138.11150763 137.12177789 150.49639061 149.51832349 162.88085938 161.9152832 C163.42260963 162.45757787 163.96435989 162.99987253 164.52252683 163.55860037 C177.17096436 176.21977104 189.81875899 188.88158351 202.4654541 201.54449463 C203.00993051 202.08966823 203.55440692 202.63484182 204.11538262 203.19653583 C206.86112193 205.94579298 209.60685676 208.69505461 212.35259137 211.44431647 C212.8952837 211.98770558 213.43797603 212.5310947 213.99711358 213.09095015 C215.09249337 214.18773669 216.18787241 215.284524 217.28325069 216.38131206 C235.36461111 234.48590161 253.44935212 252.58710872 271.53783964 270.68457761 C274.08983026 273.23784487 276.64177481 275.79115818 279.19368744 278.3445034 C279.69592644 278.84702375 280.19816545 279.3495441 280.71562381 279.86729234 C288.80994514 287.96637695 296.90055587 296.06915862 304.98970544 304.1734083 C313.11021112 312.3089579 321.23429289 320.44091808 329.36189225 328.56938181 C333.76780617 332.97600223 338.17202952 337.38428004 342.57194138 341.79689407 C346.59408094 345.83058476 350.62073424 349.85970985 354.65113506 353.88514557 C356.11369515 355.34755348 357.57453728 356.81168182 359.03354564 358.27763323 C361.00637424 360.25936907 362.98517599 362.2349353 364.9656868 364.20898914 C365.53978657 364.78862879 366.11388633 365.36826843 366.70538306 365.96547291 C369.12088338 368.36153611 370.72596853 369.90865618 374 371 C374.33 371.99 374.66 372.98 375 374 C370.36479791 373.12478408 367.92919647 370.34412248 364.71376419 367.0884943 C364.08276218 366.46155301 363.45176016 365.83461172 362.80163687 365.18867221 C360.67202459 363.06906942 358.5533435 360.9388608 356.43438721 358.80860901 C354.90127144 357.27823161 353.36750024 355.74851058 351.83312774 354.21939319 C347.60539055 350.00228402 343.38711839 345.77581504 339.17028832 341.54780328 C334.62627727 336.99497803 330.07366241 332.45077077 325.52210999 327.90548706 C317.1179424 319.51084951 308.72116795 311.10885357 300.3275028 302.70371606 C292.57496734 294.9406563 284.81945214 287.18058838 277.06096649 279.42347527 C276.54690679 278.9094996 276.0328471 278.39552393 275.50320983 277.86597325 C273.4166358 275.77975144 271.33004587 273.69354552 269.24343328 271.60736227 C249.65964777 252.02754407 230.08422224 232.43938729 210.51280476 212.84720718 C193.11079093 195.42681905 175.7025038 178.01272476 158.28857422 160.60424805 C157.17026651 159.48628677 156.05195897 158.36832533 154.9336516 157.25036371 C154.38079089 156.697674 153.82793018 156.14498429 153.25831611 155.5755464 C150.47550589 152.79358967 147.69271052 150.01161809 144.90993118 147.22963047 C144.36097424 146.68083061 143.81201731 146.13203076 143.24642531 145.5666006 C128.7101403 131.03430192 114.17858282 116.49727771 99.64854503 101.95873302 C98.08589809 100.39517901 96.52325044 98.83162572 94.96060122 97.26807399 C93.92391364 96.23078529 92.88722981 95.19349284 91.85054976 94.15619662 C84.61177232 86.91319136 77.37116749 79.67201739 70.12932472 72.43207707 C60.7997755 63.10496643 51.47358167 53.77452457 42.15295467 44.43849701 C37.65528907 39.9335617 33.15601779 35.43026098 28.65244484 30.93123055 C24.53665696 26.81949329 20.42545711 22.70322792 16.3180047 18.58316433 C14.82459376 17.08680451 13.32946358 15.59215836 11.83252493 14.09932763 C9.81135901 12.08320881 7.79634296 10.06114529 5.78287125 8.03734684 C4.89176809 7.15283841 4.89176809 7.15283841 3.98266286 6.25046113 C0 2.2283053 0 2.2283053 0 0 Z " fill="#1C97CE" transform="translate(154,0)"/>
<path d="M0 0 C0 3 0 3 -1.375 4.6875 C-3 6 -3 6 -5 6 C-5.226875 6.5775 -5.45375 7.155 -5.6875 7.75 C-7.34726345 10.59530878 -9.42066667 11.93653334 -12 14 C-13.10319957 15.23250226 -14.18475089 16.48455326 -15.25 17.75 C-17.82089493 20.76800709 -20.50013981 23.40828406 -23.5 26 C-26.41152314 28.51807407 -29.01795601 31.05831823 -31.5 34 C-34.64199353 37.72384419 -38.13301695 40.81774439 -41.8125 44 C-43.88776635 45.89738638 -45.68847236 47.85300428 -47.5 50 C-50.64199353 53.72384419 -54.13301695 56.81774439 -57.8125 60 C-59.88776635 61.89738638 -61.68847236 63.85300428 -63.5 66 C-66.64199353 69.72384419 -70.13301695 72.81774439 -73.8125 76 C-75.88776635 77.89738638 -77.68847236 79.85300428 -79.5 82 C-82.64199353 85.72384419 -86.13301695 88.81774439 -89.8125 92 C-91.88776635 93.89738638 -93.68847236 95.85300428 -95.5 98 C-98.64199353 101.72384419 -102.13301695 104.81774439 -105.8125 108 C-107.88776635 109.89738638 -109.68847236 111.85300428 -111.5 114 C-114.64199353 117.72384419 -118.13301695 120.81774439 -121.8125 124 C-123.88776635 125.89738638 -125.68847236 127.85300428 -127.5 130 C-130.64199353 133.72384419 -134.13301695 136.81774439 -137.8125 140 C-139.88776635 141.89738638 -141.68847236 143.85300428 -143.5 146 C-146.63522208 149.71581876 -150.11282233 152.80660183 -153.79296875 155.97265625 C-156.62146088 158.57086406 -159.0119884 161.42747179 -161.39453125 164.43359375 C-163.25463569 166.24844017 -164.50496432 166.47187717 -167 167 C-162.9573707 162.1518268 -158.72642953 157.58281921 -154.25567627 153.12869263 C-153.60267603 152.47413239 -152.94967578 151.81957216 -152.27688766 151.14517677 C-150.10524818 148.96957341 -147.93008171 146.79753243 -145.75488281 144.62548828 C-144.19055319 143.05980264 -142.62643617 141.49390456 -141.06251526 139.92781067 C-136.82760356 135.68835043 -132.58954736 131.4520469 -128.35077381 127.21644831 C-123.91527304 122.78348221 -119.48221587 118.34807355 -115.04876709 113.91305542 C-107.1331995 105.995554 -99.21511629 98.08057269 -91.29603669 90.16658436 C-84.11277175 82.98779449 -76.93214357 75.80637593 -69.75341797 68.62304688 C-61.41101875 60.27530047 -53.06694752 51.92923 -44.72039485 43.58563602 C-40.30396552 39.17076817 -35.88822052 34.75522154 -31.47422028 30.33792496 C-27.32982745 26.19065307 -23.18301443 22.04581673 -19.03428459 17.90288353 C-17.50876657 16.37869249 -15.98410762 14.85364109 -14.46035194 13.32768822 C-12.38799235 11.25261497 -10.3126079 9.1806164 -8.23638916 7.10940552 C-7.62764678 6.49843242 -7.0189044 5.88745932 -6.39171529 5.25797188 C-2.22830142 1.11415071 -2.22830142 1.11415071 0 0 Z " fill="#E7FEFE" transform="translate(167,743)"/>
<path d="M0 0 C0 3.44709209 -0.31196217 3.70480113 -2.5703125 6.08203125 C-3.13049072 6.67790039 -3.69066895 7.27376953 -4.26782227 7.88769531 C-4.88069092 8.52288086 -5.49355957 9.15806641 -6.125 9.8125 C-6.75011475 10.46959961 -7.37522949 11.12669922 -8.01928711 11.80371094 C-10.00275243 13.87914797 -11.99932724 15.94115406 -14 18 C-14.64565918 18.66757324 -15.29131836 19.33514648 -15.95654297 20.02294922 C-17.81693573 21.94027826 -19.68697471 23.84747966 -21.5625 25.75 C-22.13307129 26.33370361 -22.70364258 26.91740723 -23.29150391 27.51879883 C-26.33416237 30.56731029 -29.20649442 32.89176258 -33 35 C-34.36984198 36.29579647 -35.7151049 37.61992749 -37 39 C-37.66 38.67 -38.32 38.34 -39 38 C-35.83760418 34.80823908 -32.66931241 31.6223919 -29.5 28.4375 C-28.613125 27.54224609 -27.72625 26.64699219 -26.8125 25.72460938 C-22.26948658 21.1648937 -17.67760687 16.75528776 -12.79101562 12.56616211 C-10.06965108 10.18645197 -7.53184175 7.64069942 -5 5.0625 C-4.26716797 4.32290039 -4.26716797 4.32290039 -3.51953125 3.56835938 C-2.34396475 2.38126771 -1.17161174 1.19099502 0 0 Z " fill="#88B322" transform="translate(954,88)"/>
<path d="M0 0 C0 3 0 3 -1.28515625 4.54296875 C-1.87167969 5.08566406 -2.45820312 5.62835938 -3.0625 6.1875 C-5.51839879 8.53640914 -7.8164705 10.89677912 -10 13.5 C-13.75538799 17.82256329 -17.69915749 21.95584302 -21.6875 26.0625 C-22.34169922 26.75472656 -22.99589844 27.44695312 -23.66992188 28.16015625 C-24.29833984 28.79953125 -24.92675781 29.43890625 -25.57421875 30.09765625 C-26.13713623 30.68039307 -26.70005371 31.26312988 -27.2800293 31.86352539 C-29 33 -29 33 -31.21411133 32.68139648 C-31.80345459 32.45653564 -32.39279785 32.2316748 -33 32 C-23.60781149 22.4345949 -23.60781149 22.4345949 -19.3125 18.8125 C-12.47991485 12.98429072 -6.30548895 6.3855391 0 0 Z " fill="#87B321" transform="translate(876,164)"/>
<path d="M0 0 C0.33 0.99 0.66 1.98 1 3 C0.58113525 3.40839111 0.16227051 3.81678223 -0.26928711 4.23754883 C-2.16391776 6.09060864 -4.05074912 7.9514192 -5.9375 9.8125 C-6.59685547 10.45509766 -7.25621094 11.09769531 -7.93554688 11.75976562 C-8.87817383 12.69272461 -8.87817383 12.69272461 -9.83984375 13.64453125 C-10.42113037 14.21534424 -11.00241699 14.78615723 -11.60131836 15.37426758 C-13.23070238 17.06044035 -13.23070238 17.06044035 -14 20 C-15.32407669 20.68486725 -16.65909241 21.34870203 -18 22 C-19.37086915 23.29470975 -20.71340837 24.62150897 -22 26 C-22.99 25.67 -23.98 25.34 -25 25 C-16.75 16.75 -8.5 8.5 0 0 Z " fill="#E8FEFE" transform="translate(484,427)"/>
<path d="M0 0 C0.33 0.99 0.66 1.98 1 3 C-1.97678424 6.35478859 -4.98111006 9.68306679 -8 13 C-8.66515625 13.74507812 -9.3303125 14.49015625 -10.015625 15.2578125 C-10.60859375 15.89460937 -11.2015625 16.53140625 -11.8125 17.1875 C-12.33457031 17.75855469 -12.85664062 18.32960938 -13.39453125 18.91796875 C-13.92433594 19.27503906 -14.45414062 19.63210938 -15 20 C-16.32 19.67 -17.64 19.34 -19 19 C-12.73 12.73 -6.46 6.46 0 0 Z " fill="#E2B326" transform="translate(93,948)"/>
<path d="M0 0 C0 6.12196832 -7.04478464 11.10817162 -11.125 15.3125 C-13.87282703 18.01772506 -16.42685664 20.42361323 -20 22 C-20.66 21.67 -21.32 21.34 -22 21 C-19.46258085 18.43326478 -16.91930885 15.87240443 -14.375 13.3125 C-13.66214844 12.59126953 -12.94929687 11.87003906 -12.21484375 11.12695312 C-8.29554527 7.18967621 -4.3394062 3.47015607 0 0 Z " fill="#8AB323" transform="translate(697,339)"/>
<path d="M0 0 C0 4.16049198 -2.27237159 5.83777223 -5 8.6875 C-5.74842163 9.48063599 -5.74842163 9.48063599 -6.51196289 10.28979492 C-7.52425473 11.35887505 -8.53995018 12.42474299 -9.55908203 13.48730469 C-10.84857958 14.84103678 -12.11171187 16.21976953 -13.37109375 17.6015625 C-14.05300781 18.33117187 -14.73492188 19.06078125 -15.4375 19.8125 C-16.33275391 20.78123047 -16.33275391 20.78123047 -17.24609375 21.76953125 C-19 23 -19 23 -21.22265625 22.69921875 C-21.80917969 22.46847656 -22.39570312 22.23773438 -23 22 C-22.17757812 21.24976563 -21.35515625 20.49953125 -20.5078125 19.7265625 C-13.49975368 13.30944326 -6.65271152 6.78786819 0 0 Z " fill="#86B41E" transform="translate(914,127)"/>
<path d="M0 0 C0.66 0.99 1.32 1.98 2 3 C1.49210938 3.43570313 0.98421875 3.87140625 0.4609375 4.3203125 C-2.90063743 7.22864137 -6.15946891 10.1176924 -9.1875 13.375 C-11.98956481 15.99026049 -13.2447754 16.77910444 -17 17 C-11.90499173 10.6656654 -6.07469335 5.37210426 0 0 Z " fill="#89B521" transform="translate(820,219)"/>
<path d="M0 0 C0.33 0.99 0.66 1.98 1 3 C-2.30036766 8.04017808 -7.09128671 12.54158837 -12 16 C-12.99 15.67 -13.98 15.34 -15 15 C-10.05 10.05 -5.1 5.1 0 0 Z " fill="#EDC140" transform="translate(273,768)"/>
<path d="M0 0 C0.33 0.99 0.66 1.98 1 3 C-0.90202689 5.03660426 -2.81938491 7.05331336 -4.75 9.0625 C-5.55824219 9.93358398 -5.55824219 9.93358398 -6.3828125 10.82226562 C-7.984375 12.47265625 -7.984375 12.47265625 -11 15 C-13.18847656 14.65795898 -13.18847656 14.65795898 -15 14 C-10.18045285 9.08406191 -5.39294334 4.28669855 0 0 Z " fill="#85B615" transform="translate(778,260)"/>
<path d="M0 0 C0.33 0.99 0.66 1.98 1 3 C-1.71968258 7.13391753 -5.1955521 9.9240634 -9 13 C-10.01680311 13.98290968 -11.02738219 14.97334787 -12 16 C-12.99 15.67 -13.98 15.34 -15 15 C-10.05 10.05 -5.1 5.1 0 0 Z " fill="#DBB12C" transform="translate(109,932)"/>
<path d="M0 0 C0 5.24510922 -4.07994723 9.0339028 -7.62890625 12.66796875 C-9.1875 14.0625 -9.1875 14.0625 -12 16 C-12.99 15.67 -13.98 15.34 -15 15 C-10.05 10.05 -5.1 5.1 0 0 Z " fill="#E6BD40" transform="translate(243,798)"/>
<path d="M0 0 C0.33 0.99 0.66 1.98 1 3 C-1.93437024 7.52002373 -6.00296049 11.85841164 -11 14 C-11.66 13.67 -12.32 13.34 -13 13 C-8.71 8.71 -4.42 4.42 0 0 Z " fill="#EAB92B" transform="translate(221,820)"/>
<path d="M0 0 C0.33 0.99 0.66 1.98 1 3 C-0.07421875 4.68359375 -0.07421875 4.68359375 -1.6875 6.4375 C-2.24566406 7.04464844 -2.80382812 7.65179688 -3.37890625 8.27734375 C-3.91386719 8.84582031 -4.44882812 9.41429687 -5 10 C-5.70125 10.825 -6.4025 11.65 -7.125 12.5 C-7.74375 12.995 -8.3625 13.49 -9 14 C-10.32 13.67 -11.64 13.34 -13 13 C-8.71 8.71 -4.42 4.42 0 0 Z " fill="#82B11B" transform="translate(748,289)"/>
<path d="M0 0 C0.33 0.99 0.66 1.98 1 3 C-0.2578125 5.0078125 -0.2578125 5.0078125 -2.125 7.125 C-2.72570312 7.82882812 -3.32640625 8.53265625 -3.9453125 9.2578125 C-6.31139318 11.264033 -7.95461799 11.65225742 -11 12 C-7.49102731 7.81576108 -3.91939465 3.80411834 0 0 Z " fill="#DEB331" transform="translate(177,864)"/>
<path d="M0 0 C0.33 0.99 0.66 1.98 1 3 C-3.47352044 7.59589638 -8.08064098 11.88380164 -13 16 C-13.66 15.67 -14.32 15.34 -15 15 C-10.05 10.05 -5.1 5.1 0 0 Z " fill="#E4FEFE" transform="translate(500,411)"/>
<path d="M0 0 C0.33 0.99 0.66 1.98 1 3 C-3.47352044 7.59589638 -8.08064098 11.88380164 -13 16 C-13.66 15.67 -14.32 15.34 -15 15 C-10.05 10.05 -5.1 5.1 0 0 Z " fill="#E4FEFE" transform="translate(516,395)"/>
<path d="M0 0 C0.33 0.66 0.66 1.32 1 2 C-2.9419417 6.88049925 -7.11950075 11.0580583 -12 15 C-12.66 14.67 -13.32 14.34 -14 14 C-9.38 9.38 -4.76 4.76 0 0 Z " fill="#E3FEFE" transform="translate(531,380)"/>
<path d="M0 0 C0 3 0 3 -1.19335938 4.53393555 C-1.73798828 5.062854 -2.28261719 5.59177246 -2.84375 6.13671875 C-3.72353516 7.00200195 -3.72353516 7.00200195 -4.62109375 7.88476562 C-5.24113281 8.47966797 -5.86117187 9.07457031 -6.5 9.6875 C-7.12003906 10.29400391 -7.74007812 10.90050781 -8.37890625 11.52539062 C-9.91264707 13.02373743 -11.45548198 14.51276493 -13 16 C-13.66 15.67 -14.32 15.34 -15 15 C-10.39863498 9.46398272 -5.53601728 4.60136502 0 0 Z " fill="#FFF4E9" transform="translate(722,192)"/>
<path d="M0 0 C0.33 0.99 0.66 1.98 1 3 C-1.33333333 5.33333333 -3.66666667 7.66666667 -6 10 C-6.99 9.67 -7.98 9.34 -9 9 C-6.03 6.03 -3.06 3.06 0 0 Z " fill="#D7B23B" transform="translate(165,876)"/>
<path d="M0 0 C0.33 0.99 0.66 1.98 1 3 C-0.375 4.5 -0.375 4.5 -2 6 C-2.66 6 -3.32 6 -4 6 C-4 6.99 -4 7.98 -4 9 C-5.65 9.33 -7.3 9.66 -9 10 C-8.06409496 8.8944811 -7.12620142 7.79064547 -6.1875 6.6875 C-5.66542969 6.07261719 -5.14335937 5.45773437 -4.60546875 4.82421875 C-3.12827531 3.14575321 -1.59960869 1.56117966 0 0 Z " fill="#E9C149" transform="translate(253,788)"/>
<path d="M0 0 C0.33 0.99 0.66 1.98 1 3 C-1.31 5.31 -3.62 7.62 -6 10 C-6.99 9.67 -7.98 9.34 -9 9 C-6.03 6.03 -3.06 3.06 0 0 Z " fill="#DCB743" transform="translate(207,834)"/>
<path d="M0 0 C0 3.99897642 -1.35316035 5.06701552 -4 8 C-5.63356951 9.37368345 -7.2925002 10.71937515 -9 12 C-9.66 11.67 -10.32 11.34 -11 11 C-7.37 7.37 -3.74 3.74 0 0 Z " fill="#84AE20" transform="translate(674,361)"/>
<path d="M0 0 C0.66 0 1.32 0 2 0 C0.59155282 3.21524305 -1.10344786 5.32183868 -3.625 7.75 C-4.57246094 8.67039062 -4.57246094 8.67039062 -5.5390625 9.609375 C-6.02117188 10.06828125 -6.50328125 10.5271875 -7 11 C-7.66 10.67 -8.32 10.34 -9 10 C-7.5484451 8.32742645 -6.08855591 6.66208242 -4.625 5 C-3.81289063 4.071875 -3.00078125 3.14375 -2.1640625 2.1875 C-1.44992187 1.465625 -0.73578125 0.74375 0 0 Z " fill="#FFF5EA" transform="translate(892,21)"/>
<path d="M0 0 C0 3 0 3 -1.96875 5.04296875 C-2.8040625 5.75066406 -3.639375 6.45835937 -4.5 7.1875 C-5.3353125 7.90292969 -6.170625 8.61835938 -7.03125 9.35546875 C-7.6809375 9.89816406 -8.330625 10.44085938 -9 11 C-9.66 10.67 -10.32 10.34 -11 10 C-5.555 5.05 -5.555 5.05 0 0 Z " fill="#92B536" transform="translate(778,260)"/>
<path d="M0 0 C1.8125 1.4375 1.8125 1.4375 3 3 C2.01 4.32 1.02 5.64 0 7 C-1.65 5.02 -3.3 3.04 -5 1 C-2.6875 0.3125 -2.6875 0.3125 0 0 Z " fill="#E2562C" transform="translate(388,97)"/>
<path d="M0 0 C1.8125 1.4375 1.8125 1.4375 3 3 C2.01 4.32 1.02 5.64 0 7 C-1.65 5.02 -3.3 3.04 -5 1 C-2.6875 0.3125 -2.6875 0.3125 0 0 Z " fill="#E2562C" transform="translate(372,81)"/>
<path d="M0 0 C1.8125 1.4375 1.8125 1.4375 3 3 C2.01 4.32 1.02 5.64 0 7 C-1.65 5.02 -3.3 3.04 -5 1 C-2.6875 0.3125 -2.6875 0.3125 0 0 Z " fill="#E2562C" transform="translate(356,65)"/>
<path d="M0 0 C1.8125 1.4375 1.8125 1.4375 3 3 C2.01 4.32 1.02 5.64 0 7 C-1.65 5.02 -3.3 3.04 -5 1 C-2.6875 0.3125 -2.6875 0.3125 0 0 Z " fill="#E2562C" transform="translate(340,49)"/>
<path d="M0 0 C1.8125 1.4375 1.8125 1.4375 3 3 C2.01 4.32 1.02 5.64 0 7 C-1.65 5.02 -3.3 3.04 -5 1 C-2.6875 0.3125 -2.6875 0.3125 0 0 Z " fill="#E2562C" transform="translate(324,33)"/>
<path d="M0 0 C1.8125 1.4375 1.8125 1.4375 3 3 C2.01 4.32 1.02 5.64 0 7 C-1.65 5.02 -3.3 3.04 -5 1 C-2.6875 0.3125 -2.6875 0.3125 0 0 Z " fill="#E2562C" transform="translate(308,17)"/>
<path d="M0 0 C0.33 0.99 0.66 1.98 1 3 C-0.65 4.65 -2.3 6.3 -4 8 C-4.99 7.67 -5.98 7.34 -7 7 C-4.69 4.69 -2.38 2.38 0 0 Z " fill="#D6B032" transform="translate(125,916)"/>
<path d="M0 0 C0.33 0.99 0.66 1.98 1 3 C-0.125 5.125 -0.125 5.125 -2 7 C-4.6875 7.75 -4.6875 7.75 -7 8 C-6.02133662 6.85373678 -5.04205413 5.70800212 -4.0625 4.5625 C-3.51722656 3.92441406 -2.97195312 3.28632812 -2.41015625 2.62890625 C-1.63204305 1.73008851 -0.84063472 0.84063472 0 0 Z " fill="#D5B033" transform="translate(117,924)"/>
<path d="M0 0 C0.33 0.99 0.66 1.98 1 3 C-0.125 5.125 -0.125 5.125 -2 7 C-4.6875 7.75 -4.6875 7.75 -7 8 C-6.02133662 6.85373678 -5.04205413 5.70800212 -4.0625 4.5625 C-3.51722656 3.92441406 -2.97195312 3.28632812 -2.41015625 2.62890625 C-1.63204305 1.73008851 -0.84063472 0.84063472 0 0 Z " fill="#D4B038" transform="translate(149,892)"/>
<path d="M0 0 C1.98 0 3.96 0 6 0 C6.33 0.99 6.66 1.98 7 3 C6.01 4.485 6.01 4.485 5 6 C3.35 4.02 1.7 2.04 0 0 Z " fill="#DF562D" transform="translate(575,290)"/>
<path d="M0 0 C1.98 0 3.96 0 6 0 C6.33 0.99 6.66 1.98 7 3 C6.01 4.485 6.01 4.485 5 6 C3.35 4.02 1.7 2.04 0 0 Z " fill="#DF562D" transform="translate(559,274)"/>
<path d="M0 0 C1.98 0 3.96 0 6 0 C6.33 0.99 6.66 1.98 7 3 C6.01 4.485 6.01 4.485 5 6 C3.35 4.02 1.7 2.04 0 0 Z " fill="#DF562D" transform="translate(543,258)"/>
<path d="M0 0 C1.98 0 3.96 0 6 0 C6.33 0.99 6.66 1.98 7 3 C6.01 4.485 6.01 4.485 5 6 C3.35 4.02 1.7 2.04 0 0 Z " fill="#DF562D" transform="translate(527,242)"/>
<path d="M0 0 C1.98 0 3.96 0 6 0 C6.33 0.99 6.66 1.98 7 3 C6.01 4.485 6.01 4.485 5 6 C3.35 4.02 1.7 2.04 0 0 Z " fill="#DF562D" transform="translate(511,226)"/>
<path d="M0 0 C1.98 0 3.96 0 6 0 C6.33 0.99 6.66 1.98 7 3 C6.01 4.485 6.01 4.485 5 6 C3.35 4.02 1.7 2.04 0 0 Z " fill="#DF562D" transform="translate(495,210)"/>
<path d="M0 0 C0.33 0.99 0.66 1.98 1 3 C-1.64 5.31 -4.28 7.62 -7 10 C-7.66 9.67 -8.32 9.34 -9 9 C-6.03 6.03 -3.06 3.06 0 0 Z " fill="#85AE23" transform="translate(836,203)"/>
<path d="M0 0 C1.98 0 3.96 0 6 0 C6.33 0.99 6.66 1.98 7 3 C6.01 4.485 6.01 4.485 5 6 C3.35 4.02 1.7 2.04 0 0 Z " fill="#DF562D" transform="translate(479,194)"/>
<path d="M0 0 C1.98 0 3.96 0 6 0 C6.33 0.99 6.66 1.98 7 3 C6.01 4.485 6.01 4.485 5 6 C3.35 4.02 1.7 2.04 0 0 Z " fill="#DF562D" transform="translate(463,178)"/>
<path d="M0 0 C1.98 0 3.96 0 6 0 C6.33 0.99 6.66 1.98 7 3 C6.01 4.485 6.01 4.485 5 6 C3.35 4.02 1.7 2.04 0 0 Z " fill="#DF562D" transform="translate(447,162)"/>
<path d="M0 0 C1.98 0 3.96 0 6 0 C6.33 0.99 6.66 1.98 7 3 C6.01 4.485 6.01 4.485 5 6 C3.35 4.02 1.7 2.04 0 0 Z " fill="#DF562D" transform="translate(431,146)"/>
<path d="M0 0 C1.98 0 3.96 0 6 0 C6.33 0.99 6.66 1.98 7 3 C6.01 4.485 6.01 4.485 5 6 C3.35 4.02 1.7 2.04 0 0 Z " fill="#DF562D" transform="translate(415,130)"/>
<path d="M0 0 C1.98 0 3.96 0 6 0 C6.33 0.99 6.66 1.98 7 3 C6.01 4.485 6.01 4.485 5 6 C3.35 4.02 1.7 2.04 0 0 Z " fill="#DF562D" transform="translate(399,114)"/>
<path d="M0 0 C2.375 -0.1875 2.375 -0.1875 5 0 C5.66 0.99 6.32 1.98 7 3 C6.01 4.485 6.01 4.485 5 6 C3.35 4.02 1.7 2.04 0 0 Z " fill="#8CB325" transform="translate(824,538)"/>
<path d="M0 0 C-1.75 2.0625 -1.75 2.0625 -4 4 C-6.25 3.75 -6.25 3.75 -8 3 C-5.53387212 -0.1151089 -3.89156016 -0.31553191 0 0 Z " fill="#80B50E" transform="translate(743,299)"/>
<path d="M0 0 C0.33 0.99 0.66 1.98 1 3 C-1.97 5.475 -1.97 5.475 -5 8 C-5.66 7.67 -6.32 7.34 -7 7 C-4.69 4.69 -2.38 2.38 0 0 Z " fill="#DCBC53" transform="translate(221,820)"/>
</svg>
